<svg
      xmlns="http://www.w3.org/2000/svg"
      width="381.533"
      height="4.402in"
      viewBox="0 0 100.95 111.81"
    >
      <g stroke="#000" strokeWidth="0.265">
        <path
          d="M56.69 108.29l40.422-23.863a.696.696 44.705 01.957.947l-42.903 74.413a.693.693 15.293 01-1.293-.353l.51-47.153a4.693 4.693 120.03 012.307-3.991zM111.4 84.43l40.523 24.042a4.686 4.686 60.132 012.295 3.996l.34 46.68a.699.699 164.79 01-1.305.354l-42.806-74.13a.692.692 135.34 01.953-.942zM102.88 84.61l-46.284 79.433a1.527 1.527 60.225 001.314 2.296l92.32.358a1.522 1.522 120.12 001.325-2.282l-46.021-79.799a1.534 1.534.128 00-2.654-.006zM61.593 170.58l85.139-.089a.7.7 75.117 01.348 1.308l-40.288 22.986a4.68 4.68 179.78 01-4.607.019l-40.929-22.927a.692.692 104.6 01.338-1.296z"
          transform="translate(-53.741 -83.72)"
        ></path>
      </g>
    </svg>